<svg width="100" height="39" viewBox="0 0 100 39" fill="none" xmlns="http://www.w3.org/2000/svg">
<path d="M25.912 1.44C26.5733 1.568 27.064 1.792 27.384 2.112C27.7253 2.432 27.896 2.80533 27.896 3.232C27.896 3.936 27.6933 4.448 27.288 4.768C26.904 5.088 26.2853 5.216 25.432 5.152C23.512 5.00267 22.008 4.90667 20.92 4.864C19.8533 4.8 18.4453 4.75733 16.696 4.736C15.9067 8.66133 15.1813 12.608 14.52 16.576C14.2853 18.0267 14.04 19.712 13.784 21.632C13.528 23.5307 13.3573 25.0667 13.272 26.24C13.2293 26.8587 12.9733 27.3387 12.504 27.68C12.0347 28 11.4693 28.16 10.808 28.16C10.104 28.16 9.56 27.9893 9.176 27.648C8.792 27.3067 8.6 26.8587 8.6 26.304C8.6 25.792 8.67467 24.9493 8.824 23.776C8.99467 22.5813 9.18667 21.3333 9.4 20.032C9.63467 18.7307 9.816 17.6 9.944 16.64C10.1787 15.0187 10.4453 13.408 10.744 11.808C11.0427 10.208 11.3413 8.69333 11.64 7.264C11.704 6.944 11.7787 6.58133 11.864 6.176C11.9493 5.74933 12.0453 5.28 12.152 4.768C10.0613 4.832 8.41867 5.00267 7.224 5.28C6.02933 5.55733 5.176 5.952 4.664 6.464C4.17333 6.95467 3.928 7.59467 3.928 8.384C3.928 9.10933 4.14133 9.80267 4.568 10.464C4.65333 10.6133 4.696 10.7733 4.696 10.944C4.696 11.3493 4.45067 11.7333 3.96 12.096C3.49067 12.4373 3 12.608 2.488 12.608C2.12533 12.608 1.82667 12.5013 1.592 12.288C1.16533 11.9253 0.813333 11.4133 0.536 10.752C0.258667 10.0693 0.12 9.30133 0.12 8.448C0.12 6.63467 0.706667 5.184 1.88 4.096C3.07467 2.98667 4.87733 2.176 7.288 1.664C9.72 1.152 12.8347 0.895998 16.632 0.895998C18.9787 0.895998 20.8453 0.938665 22.232 1.024C23.64 1.10933 24.8667 1.248 25.912 1.44ZM23.7533 28.16C22.4306 28.16 21.3746 27.68 20.5853 26.72C19.7959 25.76 19.4013 24.5013 19.4013 22.944C19.4013 21.2373 19.7959 19.6267 20.5853 18.112C21.3746 16.576 22.4199 15.3493 23.7213 14.432C25.0439 13.4933 26.4413 13.024 27.9133 13.024C28.3826 13.024 28.6919 13.12 28.8413 13.312C29.0119 13.4827 29.1506 13.8027 29.2573 14.272C29.7053 14.1867 30.1746 14.144 30.6653 14.144C31.7106 14.144 32.2333 14.5173 32.2333 15.264C32.2333 15.712 32.0733 16.7787 31.7533 18.464C31.2626 20.9173 31.0173 22.624 31.0173 23.584C31.0173 23.904 31.0919 24.16 31.2413 24.352C31.4119 24.544 31.6253 24.64 31.8813 24.64C32.2866 24.64 32.7773 24.384 33.3533 23.872C33.9293 23.3387 34.7079 22.4853 35.6893 21.312C35.9453 21.0133 36.2333 20.864 36.5533 20.864C36.8306 20.864 37.0439 20.992 37.1933 21.248C37.3639 21.504 37.4493 21.856 37.4493 22.304C37.4493 23.1573 37.2466 23.8187 36.8413 24.288C35.9666 25.376 35.0386 26.2933 34.0573 27.04C33.0759 27.7867 32.1266 28.16 31.2093 28.16C30.5053 28.16 29.8546 27.9253 29.2573 27.456C28.6813 26.9653 28.2439 26.304 27.9453 25.472C26.8359 27.264 25.4386 28.16 23.7533 28.16ZM24.9053 24.928C25.3746 24.928 25.8226 24.6507 26.2493 24.096C26.6759 23.5413 26.9853 22.8053 27.1773 21.888L28.3613 16C27.4653 16.0213 26.6333 16.3627 25.8653 17.024C25.1186 17.664 24.5213 18.5173 24.0733 19.584C23.6253 20.6507 23.4013 21.7813 23.4013 22.976C23.4013 23.6373 23.5293 24.128 23.7853 24.448C24.0626 24.768 24.4359 24.928 24.9053 24.928ZM40.8005 28.864C39.6912 28.864 38.8378 28.608 38.2405 28.096C37.6645 27.584 37.3765 27.008 37.3765 26.368C37.3765 25.8133 37.5792 25.3333 37.9845 24.928C38.3898 24.5227 38.9872 24.32 39.7765 24.32C40.0538 24.32 40.3738 24.352 40.7365 24.416C41.1205 24.4587 41.4085 24.4907 41.6005 24.512C41.5792 23.9573 41.4512 23.4347 41.2165 22.944C41.0032 22.4533 40.7258 21.984 40.3845 21.536C40.0432 21.0667 39.7232 20.6613 39.4245 20.32C38.7632 21.5787 38.1018 22.624 37.4405 23.456C36.8005 24.288 36.0965 25.0773 35.3285 25.824C34.9445 26.208 34.5392 26.4 34.1125 26.4C33.7712 26.4 33.4938 26.2827 33.2805 26.048C33.0672 25.792 32.9605 25.4827 32.9605 25.12C32.9605 24.6933 33.1098 24.2987 33.4085 23.936L33.8245 23.424C34.9978 21.9733 35.8832 20.7787 36.4805 19.84C36.8432 19.2213 37.2698 18.4 37.7605 17.376C38.2512 16.3307 38.7312 15.2533 39.2005 14.144C39.6058 13.2053 40.4485 12.736 41.7285 12.736C42.3258 12.736 42.7418 12.7893 42.9765 12.896C43.2112 13.0027 43.3285 13.1733 43.3285 13.408C43.3285 13.536 43.2858 13.7387 43.2005 14.016C43.1152 14.2933 42.9978 14.5707 42.8485 14.848C42.4645 15.616 42.2725 16.2667 42.2725 16.8C42.2725 17.12 42.3792 17.472 42.5925 17.856C42.8272 18.24 43.1792 18.72 43.6485 19.296C44.3312 20.192 44.8432 20.96 45.1845 21.6C45.5472 22.2187 45.7285 22.9013 45.7285 23.648C45.7285 23.8613 45.7072 24.16 45.6645 24.544C46.7098 24.1387 47.9365 23.0613 49.3445 21.312C49.6005 21.0133 49.8885 20.864 50.2085 20.864C50.4858 20.864 50.6992 20.992 50.8485 21.248C51.0192 21.504 51.1045 21.856 51.1045 22.304C51.1045 23.1147 50.9018 23.776 50.4965 24.288C49.4298 25.6107 48.4058 26.5173 47.4245 27.008C46.4645 27.4773 45.2698 27.7333 43.8405 27.776C42.9872 28.5013 41.9738 28.864 40.8005 28.864ZM72.6893 18.272C72.7533 18.2507 72.8599 18.24 73.0093 18.24C73.3293 18.24 73.5746 18.3467 73.7453 18.56C73.9159 18.7733 74.0013 19.0613 74.0013 19.424C74.0013 20.0853 73.8733 20.608 73.6173 20.992C73.3613 21.3547 72.9773 21.6213 72.4653 21.792C71.4839 22.112 70.4386 22.272 69.3293 22.272C68.3906 22.272 67.5053 22.144 66.6733 21.888C66.0546 22.8907 65.3719 23.9253 64.6253 24.992C63.7719 26.208 63.0359 27.04 62.4173 27.488C61.8199 27.936 61.1373 28.16 60.3693 28.16C59.5159 28.16 58.8653 27.8293 58.4173 27.168C57.9906 26.5067 57.7239 25.4187 57.6173 23.904L57.4573 21.568C56.7959 23.36 56.1986 24.7253 55.6653 25.664C55.1533 26.6027 54.6306 27.2533 54.0973 27.616C53.5853 27.9787 52.9773 28.16 52.2733 28.16C51.3986 28.16 50.7053 27.8187 50.1933 27.136C49.7026 26.4533 49.3933 25.376 49.2653 23.904C49.0093 20.9173 48.8813 18.304 48.8813 16.064V14.944C48.9026 14.24 49.0946 13.7493 49.4573 13.472C49.8199 13.1947 50.3639 13.056 51.0893 13.056C51.6439 13.056 52.0493 13.184 52.3053 13.44C52.5826 13.6747 52.7213 14.08 52.7213 14.656C52.7213 17.1093 52.8706 20.2987 53.1693 24.224C54.6199 21.1733 55.9533 17.9947 57.1693 14.688C57.4039 14.048 57.6813 13.6213 58.0013 13.408C58.3426 13.1733 58.7479 13.056 59.2173 13.056C59.7933 13.056 60.1879 13.1733 60.4013 13.408C60.6359 13.6427 60.7533 14.0587 60.7533 14.656C60.7533 17.1093 60.9026 20.2987 61.2013 24.224C62.4813 22.3253 63.4413 20.8107 64.0813 19.68C63.7613 19.0613 63.6013 18.3253 63.6013 17.472C63.6013 16.7467 63.7613 16.0427 64.0813 15.36C64.4013 14.6773 64.8386 14.1227 65.3933 13.696C65.9479 13.2693 66.5773 13.056 67.2812 13.056C67.8999 13.056 68.4013 13.28 68.7853 13.728C69.1693 14.1547 69.3613 14.784 69.3613 15.616C69.3613 16.576 69.1053 17.6747 68.5933 18.912C69.4039 18.8693 70.4813 18.7093 71.8253 18.432L72.6893 18.272ZM75.1595 28.16C73.8368 28.16 72.7808 27.68 71.9915 26.72C71.2022 25.76 70.8075 24.5013 70.8075 22.944C70.8075 21.2373 71.2022 19.6267 71.9915 18.112C72.7808 16.576 73.8262 15.3493 75.1275 14.432C76.4502 13.4933 77.8475 13.024 79.3195 13.024C79.7888 13.024 80.0982 13.12 80.2475 13.312C80.4182 13.4827 80.5568 13.8027 80.6635 14.272C81.1115 14.1867 81.5808 14.144 82.0715 14.144C83.1168 14.144 83.6395 14.5173 83.6395 15.264C83.6395 15.712 83.4795 16.7787 83.1595 18.464C82.6688 20.9173 82.4235 22.624 82.4235 23.584C82.4235 23.904 82.4982 24.16 82.6475 24.352C82.8182 24.544 83.0315 24.64 83.2875 24.64C83.6928 24.64 84.1835 24.384 84.7595 23.872C85.3355 23.3387 86.1142 22.4853 87.0955 21.312C87.3515 21.0133 87.6395 20.864 87.9595 20.864C88.2368 20.864 88.4502 20.992 88.5995 21.248C88.7702 21.504 88.8555 21.856 88.8555 22.304C88.8555 23.1573 88.6528 23.8187 88.2475 24.288C87.3728 25.376 86.4448 26.2933 85.4635 27.04C84.4822 27.7867 83.5328 28.16 82.6155 28.16C81.9115 28.16 81.2608 27.9253 80.6635 27.456C80.0875 26.9653 79.6502 26.304 79.3515 25.472C78.2422 27.264 76.8448 28.16 75.1595 28.16ZM76.3115 24.928C76.7808 24.928 77.2288 24.6507 77.6555 24.096C78.0822 23.5413 78.3915 22.8053 78.5835 21.888L79.7675 16C78.8715 16.0213 78.0395 16.3627 77.2715 17.024C76.5248 17.664 75.9275 18.5173 75.4795 19.584C75.0315 20.6507 74.8075 21.7813 74.8075 22.976C74.8075 23.6373 74.9355 24.128 75.1915 24.448C75.4688 24.768 75.8422 24.928 76.3115 24.928ZM93.1348 38.72C92.5588 38.72 92.1108 38.5813 91.7908 38.304C91.4708 38.0267 91.3214 37.536 91.3428 36.832C91.3854 35.5733 91.5241 34.016 91.7588 32.16C92.0148 30.304 92.3454 28.384 92.7508 26.4C92.3668 27.0187 91.9294 27.4667 91.4388 27.744C90.9694 28.0213 90.4254 28.16 89.8068 28.16C88.6334 28.16 87.6734 27.7013 86.9268 26.784C86.2014 25.8453 85.8388 24.5653 85.8388 22.944C85.8388 21.2373 86.2334 19.6267 87.0228 18.112C87.8121 16.576 88.8574 15.3493 90.1588 14.432C91.4814 13.4933 92.8788 13.024 94.3508 13.024C94.5641 13.024 94.7881 13.056 95.0228 13.12C95.2574 13.184 95.4388 13.28 95.5668 13.408C95.7374 12.8533 96.0148 12.448 96.3988 12.192C96.7828 11.936 97.2948 11.808 97.9348 11.808C98.5748 11.808 99.0121 11.9147 99.2468 12.128C99.4814 12.3413 99.5774 12.6507 99.5348 13.056C99.4921 13.3547 99.2788 14.2933 98.8948 15.872C98.1908 18.6667 97.6148 21.2373 97.1668 23.584C96.2708 28.32 95.6201 32.7253 95.2148 36.8C95.1508 37.5253 94.9268 38.0267 94.5428 38.304C94.1801 38.5813 93.7108 38.72 93.1348 38.72ZM91.3428 24.928C91.8548 24.928 92.3028 24.6613 92.6868 24.128C93.0708 23.5947 93.3801 22.848 93.6148 21.888L94.9588 16C94.0201 16.0213 93.1561 16.3627 92.3668 17.024C91.5774 17.664 90.9588 18.5173 90.5108 19.584C90.0628 20.6507 89.8388 21.7813 89.8388 22.976C89.8388 23.6373 89.9668 24.128 90.2228 24.448C90.5001 24.768 90.8734 24.928 91.3428 24.928Z" fill="#21D4B4"/>
</svg>
