<svg width="28" height="31" viewBox="0 0 28 31" fill="none" xmlns="http://www.w3.org/2000/svg">
<g filter="url(#filter0_d_690_5364)">
<path d="M23 6.73046C22.98 6.73046 22.95 6.73046 22.92 6.73046C17.63 6.20046 12.35 6.00046 7.12004 6.53046L5.08004 6.73046C4.66004 6.77046 4.29004 6.47046 4.25004 6.05046C4.21004 5.63046 4.51004 5.27046 4.92004 5.23046L6.96004 5.03046C12.28 4.49046 17.67 4.70046 23.07 5.23046C23.48 5.27046 23.78 5.64046 23.74 6.05046C23.71 6.44046 23.38 6.73046 23 6.73046Z" fill="#EE4D4D"/>
<path d="M10.5 5.72C10.46 5.72 10.42 5.72 10.37 5.71C9.97001 5.64 9.69001 5.25 9.76001 4.85L9.98001 3.54C10.14 2.58 10.36 1.25 12.69 1.25H15.31C17.65 1.25 17.87 2.63 18.02 3.55L18.24 4.85C18.31 5.26 18.03 5.65 17.63 5.71C17.22 5.78 16.83 5.5 16.77 5.1L16.55 3.8C16.41 2.93 16.38 2.76 15.32 2.76H12.7C11.64 2.76 11.62 2.9 11.47 3.79L11.24 5.09C11.18 5.46 10.86 5.72 10.5 5.72Z" fill="#EE4D4D"/>
<path d="M17.21 22.7496H10.79C7.30002 22.7496 7.16002 20.8196 7.05002 19.2596L6.40002 9.18959C6.37002 8.77959 6.69002 8.41959 7.10002 8.38959C7.52002 8.36959 7.87002 8.67959 7.90002 9.08959L8.55002 19.1596C8.66002 20.6796 8.70002 21.2496 10.79 21.2496H17.21C19.31 21.2496 19.35 20.6796 19.45 19.1596L20.1 9.08959C20.13 8.67959 20.49 8.36959 20.9 8.38959C21.31 8.41959 21.63 8.76959 21.6 9.18959L20.95 19.2596C20.84 20.8196 20.7 22.7496 17.21 22.7496Z" fill="#EE4D4D"/>
<path d="M15.66 17.25H12.33C11.92 17.25 11.58 16.91 11.58 16.5C11.58 16.09 11.92 15.75 12.33 15.75H15.66C16.07 15.75 16.41 16.09 16.41 16.5C16.41 16.91 16.07 17.25 15.66 17.25Z" fill="#EE4D4D"/>
<path d="M16.5 13.25H11.5C11.09 13.25 10.75 12.91 10.75 12.5C10.75 12.09 11.09 11.75 11.5 11.75H16.5C16.91 11.75 17.25 12.09 17.25 12.5C17.25 12.91 16.91 13.25 16.5 13.25Z" fill="#EE4D4D"/>
</g>
<defs>
<filter id="filter0_d_690_5364" x="-2" y="0" width="32" height="32" filterUnits="userSpaceOnUse" color-interpolation-filters="sRGB">
<feFlood flood-opacity="0" result="BackgroundImageFix"/>
<feColorMatrix in="SourceAlpha" type="matrix" values="0 0 0 0 0 0 0 0 0 0 0 0 0 0 0 0 0 0 127 0" result="hardAlpha"/>
<feOffset dy="4"/>
<feGaussianBlur stdDeviation="2"/>
<feComposite in2="hardAlpha" operator="out"/>
<feColorMatrix type="matrix" values="0 0 0 0 0 0 0 0 0 0 0 0 0 0 0 0 0 0 0.25 0"/>
<feBlend mode="normal" in2="BackgroundImageFix" result="effect1_dropShadow_690_5364"/>
<feBlend mode="normal" in="SourceGraphic" in2="effect1_dropShadow_690_5364" result="shape"/>
</filter>
</defs>
</svg>
